<mxfile host="app.diagrams.net" agent="Mozilla/5.0 (Windows NT 10.0; Win64; x64) AppleWebKit/537.36 (KHTML, like Gecko) Chrome/140.0.0.0 Safari/537.36" version="28.2.1" pages="5">
  <diagram name="Page-1" id="c7488fd3-1785-93aa-aadb-54a6760d102a">
    <mxGraphModel dx="786" dy="451" grid="1" gridSize="10" guides="1" tooltips="1" connect="1" arrows="1" fold="1" page="1" pageScale="1" pageWidth="1100" pageHeight="850" background="none" math="0" shadow="0">
      <root>
        <mxCell id="0" />
        <mxCell id="1" parent="0" />
        <mxCell id="8cOZtVEsuGr7HYiU1wEb-23" value="" style="edgeStyle=orthogonalEdgeStyle;rounded=0;orthogonalLoop=1;jettySize=auto;html=1;" edge="1" parent="1" source="8cOZtVEsuGr7HYiU1wEb-21" target="8cOZtVEsuGr7HYiU1wEb-22">
          <mxGeometry relative="1" as="geometry" />
        </mxCell>
        <mxCell id="8cOZtVEsuGr7HYiU1wEb-25" value="" style="edgeStyle=orthogonalEdgeStyle;rounded=0;orthogonalLoop=1;jettySize=auto;html=1;" edge="1" parent="1" source="8cOZtVEsuGr7HYiU1wEb-21" target="8cOZtVEsuGr7HYiU1wEb-24">
          <mxGeometry relative="1" as="geometry" />
        </mxCell>
        <mxCell id="8cOZtVEsuGr7HYiU1wEb-21" value="Start" style="strokeWidth=2;html=1;shape=mxgraph.flowchart.start_1;whiteSpace=wrap;" vertex="1" parent="1">
          <mxGeometry x="320" y="20" width="100" height="60" as="geometry" />
        </mxCell>
        <mxCell id="8cOZtVEsuGr7HYiU1wEb-27" value="" style="edgeStyle=orthogonalEdgeStyle;rounded=0;orthogonalLoop=1;jettySize=auto;html=1;" edge="1" parent="1" source="8cOZtVEsuGr7HYiU1wEb-22" target="8cOZtVEsuGr7HYiU1wEb-26">
          <mxGeometry relative="1" as="geometry" />
        </mxCell>
        <mxCell id="8cOZtVEsuGr7HYiU1wEb-22" value="input num1" style="shape=parallelogram;perimeter=parallelogramPerimeter;whiteSpace=wrap;html=1;fixedSize=1;strokeWidth=2;" vertex="1" parent="1">
          <mxGeometry x="150" y="90" width="120" height="60" as="geometry" />
        </mxCell>
        <mxCell id="8cOZtVEsuGr7HYiU1wEb-46" style="edgeStyle=orthogonalEdgeStyle;rounded=0;orthogonalLoop=1;jettySize=auto;html=1;entryX=1;entryY=0.5;entryDx=0;entryDy=0;" edge="1" parent="1" source="8cOZtVEsuGr7HYiU1wEb-24" target="8cOZtVEsuGr7HYiU1wEb-26">
          <mxGeometry relative="1" as="geometry">
            <Array as="points">
              <mxPoint x="405" y="120" />
              <mxPoint x="405" y="210" />
              <mxPoint x="380" y="210" />
            </Array>
          </mxGeometry>
        </mxCell>
        <mxCell id="8cOZtVEsuGr7HYiU1wEb-24" value="input num2" style="shape=parallelogram;perimeter=parallelogramPerimeter;whiteSpace=wrap;html=1;fixedSize=1;strokeWidth=2;" vertex="1" parent="1">
          <mxGeometry x="430" y="90" width="120" height="60" as="geometry" />
        </mxCell>
        <mxCell id="8cOZtVEsuGr7HYiU1wEb-34" value="" style="edgeStyle=orthogonalEdgeStyle;rounded=0;orthogonalLoop=1;jettySize=auto;html=1;" edge="1" parent="1" source="8cOZtVEsuGr7HYiU1wEb-26" target="8cOZtVEsuGr7HYiU1wEb-33">
          <mxGeometry relative="1" as="geometry" />
        </mxCell>
        <mxCell id="8cOZtVEsuGr7HYiU1wEb-47" style="edgeStyle=orthogonalEdgeStyle;rounded=0;orthogonalLoop=1;jettySize=auto;html=1;entryX=0.5;entryY=0;entryDx=0;entryDy=0;" edge="1" parent="1" source="8cOZtVEsuGr7HYiU1wEb-26" target="8cOZtVEsuGr7HYiU1wEb-37">
          <mxGeometry relative="1" as="geometry" />
        </mxCell>
        <mxCell id="8cOZtVEsuGr7HYiU1wEb-26" value="num 1 &amp;gt; num2 ?" style="rhombus;whiteSpace=wrap;html=1;strokeWidth=2;" vertex="1" parent="1">
          <mxGeometry x="280" y="180" width="100" height="90" as="geometry" />
        </mxCell>
        <mxCell id="8cOZtVEsuGr7HYiU1wEb-31" value="Yes" style="text;html=1;align=center;verticalAlign=middle;resizable=0;points=[];autosize=1;strokeColor=none;fillColor=none;" vertex="1" parent="1">
          <mxGeometry x="270" y="170" width="40" height="30" as="geometry" />
        </mxCell>
        <mxCell id="8cOZtVEsuGr7HYiU1wEb-32" value="No" style="text;html=1;align=center;verticalAlign=middle;resizable=0;points=[];autosize=1;strokeColor=none;fillColor=none;" vertex="1" parent="1">
          <mxGeometry x="340" y="170" width="40" height="30" as="geometry" />
        </mxCell>
        <mxCell id="8cOZtVEsuGr7HYiU1wEb-33" value="Output num1" style="shape=parallelogram;perimeter=parallelogramPerimeter;whiteSpace=wrap;html=1;fixedSize=1;strokeWidth=2;" vertex="1" parent="1">
          <mxGeometry x="70" y="195" width="120" height="60" as="geometry" />
        </mxCell>
        <mxCell id="8cOZtVEsuGr7HYiU1wEb-42" value="" style="edgeStyle=orthogonalEdgeStyle;rounded=0;orthogonalLoop=1;jettySize=auto;html=1;" edge="1" parent="1" source="8cOZtVEsuGr7HYiU1wEb-37" target="8cOZtVEsuGr7HYiU1wEb-41">
          <mxGeometry relative="1" as="geometry" />
        </mxCell>
        <mxCell id="8cOZtVEsuGr7HYiU1wEb-44" value="" style="edgeStyle=orthogonalEdgeStyle;rounded=0;orthogonalLoop=1;jettySize=auto;html=1;" edge="1" parent="1" source="8cOZtVEsuGr7HYiU1wEb-37" target="8cOZtVEsuGr7HYiU1wEb-43">
          <mxGeometry relative="1" as="geometry" />
        </mxCell>
        <mxCell id="8cOZtVEsuGr7HYiU1wEb-37" value="num 2 &amp;gt; num1 ?" style="rhombus;whiteSpace=wrap;html=1;strokeWidth=2;" vertex="1" parent="1">
          <mxGeometry x="430" y="260" width="110" height="90" as="geometry" />
        </mxCell>
        <mxCell id="8cOZtVEsuGr7HYiU1wEb-39" value="Yes" style="text;html=1;align=center;verticalAlign=middle;resizable=0;points=[];autosize=1;strokeColor=none;fillColor=none;" vertex="1" parent="1">
          <mxGeometry x="430" y="255" width="40" height="30" as="geometry" />
        </mxCell>
        <mxCell id="8cOZtVEsuGr7HYiU1wEb-40" value="No" style="text;html=1;align=center;verticalAlign=middle;resizable=0;points=[];autosize=1;strokeColor=none;fillColor=none;" vertex="1" parent="1">
          <mxGeometry x="500" y="255" width="40" height="30" as="geometry" />
        </mxCell>
        <mxCell id="8cOZtVEsuGr7HYiU1wEb-41" value="Output num2" style="shape=parallelogram;perimeter=parallelogramPerimeter;whiteSpace=wrap;html=1;fixedSize=1;strokeWidth=2;" vertex="1" parent="1">
          <mxGeometry x="270" y="380" width="120" height="60" as="geometry" />
        </mxCell>
        <mxCell id="8cOZtVEsuGr7HYiU1wEb-43" value="Output &quot;Equal&quot;" style="shape=parallelogram;perimeter=parallelogramPerimeter;whiteSpace=wrap;html=1;fixedSize=1;strokeWidth=2;" vertex="1" parent="1">
          <mxGeometry x="610" y="275" width="120" height="60" as="geometry" />
        </mxCell>
        <mxCell id="8cOZtVEsuGr7HYiU1wEb-51" value="End" style="strokeWidth=2;html=1;shape=mxgraph.flowchart.start_1;whiteSpace=wrap;" vertex="1" parent="1">
          <mxGeometry x="370" y="500" width="100" height="60" as="geometry" />
        </mxCell>
        <mxCell id="8cOZtVEsuGr7HYiU1wEb-52" style="edgeStyle=orthogonalEdgeStyle;rounded=0;orthogonalLoop=1;jettySize=auto;html=1;entryX=1;entryY=0.5;entryDx=0;entryDy=0;entryPerimeter=0;" edge="1" parent="1" source="8cOZtVEsuGr7HYiU1wEb-43" target="8cOZtVEsuGr7HYiU1wEb-51">
          <mxGeometry relative="1" as="geometry">
            <Array as="points">
              <mxPoint x="670" y="530" />
            </Array>
          </mxGeometry>
        </mxCell>
        <mxCell id="8cOZtVEsuGr7HYiU1wEb-53" style="edgeStyle=orthogonalEdgeStyle;rounded=0;orthogonalLoop=1;jettySize=auto;html=1;entryX=-0.007;entryY=0.722;entryDx=0;entryDy=0;entryPerimeter=0;" edge="1" parent="1" source="8cOZtVEsuGr7HYiU1wEb-33" target="8cOZtVEsuGr7HYiU1wEb-51">
          <mxGeometry relative="1" as="geometry">
            <Array as="points">
              <mxPoint x="130" y="543" />
            </Array>
          </mxGeometry>
        </mxCell>
        <mxCell id="8cOZtVEsuGr7HYiU1wEb-54" style="edgeStyle=orthogonalEdgeStyle;rounded=0;orthogonalLoop=1;jettySize=auto;html=1;entryX=0.5;entryY=0;entryDx=0;entryDy=0;entryPerimeter=0;" edge="1" parent="1" source="8cOZtVEsuGr7HYiU1wEb-41" target="8cOZtVEsuGr7HYiU1wEb-51">
          <mxGeometry relative="1" as="geometry" />
        </mxCell>
      </root>
    </mxGraphModel>
  </diagram>
  <diagram id="-lDdc4eFxB20odomS_Dg" name="Page-2">
    <mxGraphModel dx="1048" dy="601" grid="1" gridSize="10" guides="1" tooltips="1" connect="1" arrows="1" fold="1" page="1" pageScale="1" pageWidth="850" pageHeight="1100" math="0" shadow="0">
      <root>
        <mxCell id="0" />
        <mxCell id="1" parent="0" />
        <mxCell id="IFGqzAfwYDj0Hb0l-oyd-3" value="" style="edgeStyle=orthogonalEdgeStyle;rounded=0;orthogonalLoop=1;jettySize=auto;html=1;" edge="1" parent="1" source="IFGqzAfwYDj0Hb0l-oyd-1" target="IFGqzAfwYDj0Hb0l-oyd-2">
          <mxGeometry relative="1" as="geometry" />
        </mxCell>
        <mxCell id="IFGqzAfwYDj0Hb0l-oyd-1" value="Start" style="strokeWidth=2;html=1;shape=mxgraph.flowchart.start_1;whiteSpace=wrap;" vertex="1" parent="1">
          <mxGeometry x="340" y="80" width="100" height="60" as="geometry" />
        </mxCell>
        <mxCell id="IFGqzAfwYDj0Hb0l-oyd-5" value="" style="edgeStyle=orthogonalEdgeStyle;rounded=0;orthogonalLoop=1;jettySize=auto;html=1;" edge="1" parent="1" source="IFGqzAfwYDj0Hb0l-oyd-2" target="IFGqzAfwYDj0Hb0l-oyd-4">
          <mxGeometry relative="1" as="geometry" />
        </mxCell>
        <mxCell id="IFGqzAfwYDj0Hb0l-oyd-2" value="input number" style="shape=parallelogram;perimeter=parallelogramPerimeter;whiteSpace=wrap;html=1;fixedSize=1;strokeWidth=2;" vertex="1" parent="1">
          <mxGeometry x="330" y="220" width="120" height="60" as="geometry" />
        </mxCell>
        <mxCell id="IFGqzAfwYDj0Hb0l-oyd-7" value="" style="edgeStyle=orthogonalEdgeStyle;rounded=0;orthogonalLoop=1;jettySize=auto;html=1;" edge="1" parent="1" source="IFGqzAfwYDj0Hb0l-oyd-4" target="IFGqzAfwYDj0Hb0l-oyd-6">
          <mxGeometry relative="1" as="geometry" />
        </mxCell>
        <mxCell id="IFGqzAfwYDj0Hb0l-oyd-9" value="" style="edgeStyle=orthogonalEdgeStyle;rounded=0;orthogonalLoop=1;jettySize=auto;html=1;" edge="1" parent="1" source="IFGqzAfwYDj0Hb0l-oyd-4" target="IFGqzAfwYDj0Hb0l-oyd-8">
          <mxGeometry relative="1" as="geometry" />
        </mxCell>
        <mxCell id="IFGqzAfwYDj0Hb0l-oyd-4" value="number % 2 == 0?" style="rhombus;whiteSpace=wrap;html=1;strokeWidth=2;" vertex="1" parent="1">
          <mxGeometry x="350" y="340" width="120" height="90" as="geometry" />
        </mxCell>
        <mxCell id="IFGqzAfwYDj0Hb0l-oyd-6" value="Output &quot;even&quot;" style="shape=parallelogram;perimeter=parallelogramPerimeter;whiteSpace=wrap;html=1;fixedSize=1;strokeWidth=2;" vertex="1" parent="1">
          <mxGeometry x="180" y="440" width="120" height="60" as="geometry" />
        </mxCell>
        <mxCell id="IFGqzAfwYDj0Hb0l-oyd-8" value="Output &quot;odd&quot;" style="shape=parallelogram;perimeter=parallelogramPerimeter;whiteSpace=wrap;html=1;fixedSize=1;strokeWidth=2;" vertex="1" parent="1">
          <mxGeometry x="550" y="440" width="120" height="60" as="geometry" />
        </mxCell>
        <mxCell id="IFGqzAfwYDj0Hb0l-oyd-10" value="Yes" style="text;html=1;align=center;verticalAlign=middle;resizable=0;points=[];autosize=1;strokeColor=none;fillColor=none;" vertex="1" parent="1">
          <mxGeometry x="350" y="328" width="40" height="30" as="geometry" />
        </mxCell>
        <mxCell id="IFGqzAfwYDj0Hb0l-oyd-11" value="No" style="text;html=1;align=center;verticalAlign=middle;resizable=0;points=[];autosize=1;strokeColor=none;fillColor=none;" vertex="1" parent="1">
          <mxGeometry x="420" y="328" width="40" height="30" as="geometry" />
        </mxCell>
        <mxCell id="IFGqzAfwYDj0Hb0l-oyd-12" value="End" style="strokeWidth=2;html=1;shape=mxgraph.flowchart.start_1;whiteSpace=wrap;" vertex="1" parent="1">
          <mxGeometry x="375" y="530" width="100" height="60" as="geometry" />
        </mxCell>
        <mxCell id="IFGqzAfwYDj0Hb0l-oyd-13" style="edgeStyle=orthogonalEdgeStyle;rounded=0;orthogonalLoop=1;jettySize=auto;html=1;entryX=1;entryY=0.5;entryDx=0;entryDy=0;entryPerimeter=0;" edge="1" parent="1" source="IFGqzAfwYDj0Hb0l-oyd-8" target="IFGqzAfwYDj0Hb0l-oyd-12">
          <mxGeometry relative="1" as="geometry">
            <Array as="points">
              <mxPoint x="610" y="560" />
            </Array>
          </mxGeometry>
        </mxCell>
        <mxCell id="IFGqzAfwYDj0Hb0l-oyd-14" style="edgeStyle=orthogonalEdgeStyle;rounded=0;orthogonalLoop=1;jettySize=auto;html=1;entryX=0;entryY=0.5;entryDx=0;entryDy=0;entryPerimeter=0;" edge="1" parent="1" source="IFGqzAfwYDj0Hb0l-oyd-6" target="IFGqzAfwYDj0Hb0l-oyd-12">
          <mxGeometry relative="1" as="geometry">
            <Array as="points">
              <mxPoint x="240" y="560" />
            </Array>
          </mxGeometry>
        </mxCell>
      </root>
    </mxGraphModel>
  </diagram>
  <diagram id="RxEtRmpWEt834ZBWSpUO" name="Page-3">
    <mxGraphModel dx="1123" dy="644" grid="1" gridSize="10" guides="1" tooltips="1" connect="1" arrows="1" fold="1" page="1" pageScale="1" pageWidth="850" pageHeight="1100" math="0" shadow="0">
      <root>
        <mxCell id="0" />
        <mxCell id="1" parent="0" />
        <mxCell id="cIfP0gj-dL7oulKhGRPX-3" value="" style="edgeStyle=orthogonalEdgeStyle;rounded=0;orthogonalLoop=1;jettySize=auto;html=1;" edge="1" parent="1" source="cIfP0gj-dL7oulKhGRPX-1" target="cIfP0gj-dL7oulKhGRPX-2">
          <mxGeometry relative="1" as="geometry" />
        </mxCell>
        <mxCell id="cIfP0gj-dL7oulKhGRPX-1" value="Start" style="strokeWidth=2;html=1;shape=mxgraph.flowchart.start_1;whiteSpace=wrap;" vertex="1" parent="1">
          <mxGeometry x="360" y="30" width="100" height="60" as="geometry" />
        </mxCell>
        <mxCell id="cIfP0gj-dL7oulKhGRPX-5" value="" style="edgeStyle=orthogonalEdgeStyle;rounded=0;orthogonalLoop=1;jettySize=auto;html=1;" edge="1" parent="1" source="cIfP0gj-dL7oulKhGRPX-2" target="cIfP0gj-dL7oulKhGRPX-4">
          <mxGeometry relative="1" as="geometry" />
        </mxCell>
        <mxCell id="cIfP0gj-dL7oulKhGRPX-2" value="Input number" style="shape=parallelogram;perimeter=parallelogramPerimeter;whiteSpace=wrap;html=1;fixedSize=1;strokeWidth=2;" vertex="1" parent="1">
          <mxGeometry x="350" y="130" width="120" height="60" as="geometry" />
        </mxCell>
        <mxCell id="cIfP0gj-dL7oulKhGRPX-7" value="" style="edgeStyle=orthogonalEdgeStyle;rounded=0;orthogonalLoop=1;jettySize=auto;html=1;" edge="1" parent="1" source="cIfP0gj-dL7oulKhGRPX-4" target="cIfP0gj-dL7oulKhGRPX-6">
          <mxGeometry relative="1" as="geometry" />
        </mxCell>
        <mxCell id="cIfP0gj-dL7oulKhGRPX-4" value="counter = 1" style="whiteSpace=wrap;html=1;strokeWidth=2;" vertex="1" parent="1">
          <mxGeometry x="350" y="240" width="120" height="60" as="geometry" />
        </mxCell>
        <mxCell id="cIfP0gj-dL7oulKhGRPX-11" value="" style="edgeStyle=orthogonalEdgeStyle;rounded=0;orthogonalLoop=1;jettySize=auto;html=1;" edge="1" parent="1" source="cIfP0gj-dL7oulKhGRPX-6" target="cIfP0gj-dL7oulKhGRPX-10">
          <mxGeometry relative="1" as="geometry" />
        </mxCell>
        <mxCell id="cIfP0gj-dL7oulKhGRPX-6" value="counter &amp;lt;= 5 ?" style="rhombus;whiteSpace=wrap;html=1;strokeWidth=2;" vertex="1" parent="1">
          <mxGeometry x="360" y="340" width="100" height="80" as="geometry" />
        </mxCell>
        <mxCell id="cIfP0gj-dL7oulKhGRPX-8" value="Yes" style="text;html=1;align=center;verticalAlign=middle;resizable=0;points=[];autosize=1;strokeColor=none;fillColor=none;" vertex="1" parent="1">
          <mxGeometry x="350" y="330" width="40" height="30" as="geometry" />
        </mxCell>
        <mxCell id="cIfP0gj-dL7oulKhGRPX-9" value="No" style="text;html=1;align=center;verticalAlign=middle;resizable=0;points=[];autosize=1;strokeColor=none;fillColor=none;" vertex="1" parent="1">
          <mxGeometry x="420" y="330" width="40" height="30" as="geometry" />
        </mxCell>
        <mxCell id="cIfP0gj-dL7oulKhGRPX-13" value="" style="edgeStyle=orthogonalEdgeStyle;rounded=0;orthogonalLoop=1;jettySize=auto;html=1;" edge="1" parent="1" source="cIfP0gj-dL7oulKhGRPX-10" target="cIfP0gj-dL7oulKhGRPX-12">
          <mxGeometry relative="1" as="geometry" />
        </mxCell>
        <mxCell id="cIfP0gj-dL7oulKhGRPX-10" value="output number" style="shape=parallelogram;perimeter=parallelogramPerimeter;whiteSpace=wrap;html=1;fixedSize=1;strokeWidth=2;" vertex="1" parent="1">
          <mxGeometry x="180" y="350" width="120" height="60" as="geometry" />
        </mxCell>
        <mxCell id="cIfP0gj-dL7oulKhGRPX-15" style="edgeStyle=orthogonalEdgeStyle;rounded=0;orthogonalLoop=1;jettySize=auto;html=1;entryX=0.5;entryY=1;entryDx=0;entryDy=0;" edge="1" parent="1" source="cIfP0gj-dL7oulKhGRPX-12" target="cIfP0gj-dL7oulKhGRPX-6">
          <mxGeometry relative="1" as="geometry" />
        </mxCell>
        <mxCell id="cIfP0gj-dL7oulKhGRPX-12" value="counter = counter + 1" style="whiteSpace=wrap;html=1;strokeWidth=2;" vertex="1" parent="1">
          <mxGeometry x="180" y="470" width="120" height="60" as="geometry" />
        </mxCell>
        <mxCell id="cIfP0gj-dL7oulKhGRPX-16" value="End" style="strokeWidth=2;html=1;shape=mxgraph.flowchart.start_1;whiteSpace=wrap;" vertex="1" parent="1">
          <mxGeometry x="325" y="570" width="100" height="60" as="geometry" />
        </mxCell>
        <mxCell id="cIfP0gj-dL7oulKhGRPX-17" style="edgeStyle=orthogonalEdgeStyle;rounded=0;orthogonalLoop=1;jettySize=auto;html=1;entryX=0;entryY=0.5;entryDx=0;entryDy=0;entryPerimeter=0;" edge="1" parent="1" source="cIfP0gj-dL7oulKhGRPX-12" target="cIfP0gj-dL7oulKhGRPX-16">
          <mxGeometry relative="1" as="geometry">
            <Array as="points">
              <mxPoint x="220" y="610" />
            </Array>
          </mxGeometry>
        </mxCell>
        <mxCell id="cIfP0gj-dL7oulKhGRPX-19" style="edgeStyle=orthogonalEdgeStyle;rounded=0;orthogonalLoop=1;jettySize=auto;html=1;entryX=0.997;entryY=0.622;entryDx=0;entryDy=0;entryPerimeter=0;" edge="1" parent="1" source="cIfP0gj-dL7oulKhGRPX-6" target="cIfP0gj-dL7oulKhGRPX-16">
          <mxGeometry relative="1" as="geometry">
            <Array as="points">
              <mxPoint x="490" y="380" />
              <mxPoint x="490" y="607" />
            </Array>
          </mxGeometry>
        </mxCell>
      </root>
    </mxGraphModel>
  </diagram>
  <diagram id="kyRemkc_U8iMJ01JnblO" name="Page-4">
    <mxGraphModel dx="1123" dy="644" grid="1" gridSize="10" guides="1" tooltips="1" connect="1" arrows="1" fold="1" page="1" pageScale="1" pageWidth="850" pageHeight="1100" math="0" shadow="0">
      <root>
        <mxCell id="0" />
        <mxCell id="1" parent="0" />
        <mxCell id="MInNZ0JYv_VLthMc8rb3-3" value="" style="edgeStyle=orthogonalEdgeStyle;rounded=0;orthogonalLoop=1;jettySize=auto;html=1;" edge="1" parent="1" source="MInNZ0JYv_VLthMc8rb3-1" target="MInNZ0JYv_VLthMc8rb3-2">
          <mxGeometry relative="1" as="geometry" />
        </mxCell>
        <mxCell id="MInNZ0JYv_VLthMc8rb3-1" value="Start" style="strokeWidth=2;html=1;shape=mxgraph.flowchart.start_1;whiteSpace=wrap;" vertex="1" parent="1">
          <mxGeometry x="360" y="30" width="100" height="60" as="geometry" />
        </mxCell>
        <mxCell id="MInNZ0JYv_VLthMc8rb3-5" value="" style="edgeStyle=orthogonalEdgeStyle;rounded=0;orthogonalLoop=1;jettySize=auto;html=1;" edge="1" parent="1" source="MInNZ0JYv_VLthMc8rb3-2" target="MInNZ0JYv_VLthMc8rb3-4">
          <mxGeometry relative="1" as="geometry" />
        </mxCell>
        <mxCell id="MInNZ0JYv_VLthMc8rb3-2" value="i = 1" style="whiteSpace=wrap;html=1;strokeWidth=2;" vertex="1" parent="1">
          <mxGeometry x="350" y="140" width="120" height="60" as="geometry" />
        </mxCell>
        <mxCell id="MInNZ0JYv_VLthMc8rb3-9" value="" style="edgeStyle=orthogonalEdgeStyle;rounded=0;orthogonalLoop=1;jettySize=auto;html=1;" edge="1" parent="1" source="MInNZ0JYv_VLthMc8rb3-4" target="MInNZ0JYv_VLthMc8rb3-8">
          <mxGeometry relative="1" as="geometry" />
        </mxCell>
        <mxCell id="MInNZ0JYv_VLthMc8rb3-4" value="i &amp;lt;= 10 ?" style="rhombus;whiteSpace=wrap;html=1;strokeWidth=2;" vertex="1" parent="1">
          <mxGeometry x="370" y="250" width="80" height="80" as="geometry" />
        </mxCell>
        <mxCell id="MInNZ0JYv_VLthMc8rb3-6" value="Yes" style="text;html=1;align=center;verticalAlign=middle;resizable=0;points=[];autosize=1;strokeColor=none;fillColor=none;" vertex="1" parent="1">
          <mxGeometry x="360" y="240" width="40" height="30" as="geometry" />
        </mxCell>
        <mxCell id="MInNZ0JYv_VLthMc8rb3-7" value="No" style="text;html=1;align=center;verticalAlign=middle;resizable=0;points=[];autosize=1;strokeColor=none;fillColor=none;" vertex="1" parent="1">
          <mxGeometry x="410" y="240" width="40" height="30" as="geometry" />
        </mxCell>
        <mxCell id="MInNZ0JYv_VLthMc8rb3-11" value="" style="edgeStyle=orthogonalEdgeStyle;rounded=0;orthogonalLoop=1;jettySize=auto;html=1;" edge="1" parent="1" source="MInNZ0JYv_VLthMc8rb3-8" target="MInNZ0JYv_VLthMc8rb3-10">
          <mxGeometry relative="1" as="geometry" />
        </mxCell>
        <mxCell id="MInNZ0JYv_VLthMc8rb3-8" value="output i" style="shape=parallelogram;perimeter=parallelogramPerimeter;whiteSpace=wrap;html=1;fixedSize=1;strokeWidth=2;" vertex="1" parent="1">
          <mxGeometry x="170" y="260" width="120" height="60" as="geometry" />
        </mxCell>
        <mxCell id="MInNZ0JYv_VLthMc8rb3-12" style="edgeStyle=orthogonalEdgeStyle;rounded=0;orthogonalLoop=1;jettySize=auto;html=1;entryX=0.5;entryY=1;entryDx=0;entryDy=0;" edge="1" parent="1" source="MInNZ0JYv_VLthMc8rb3-10" target="MInNZ0JYv_VLthMc8rb3-4">
          <mxGeometry relative="1" as="geometry" />
        </mxCell>
        <mxCell id="MInNZ0JYv_VLthMc8rb3-10" value="i = i + 1" style="whiteSpace=wrap;html=1;strokeWidth=2;" vertex="1" parent="1">
          <mxGeometry x="170" y="390" width="120" height="60" as="geometry" />
        </mxCell>
        <mxCell id="MInNZ0JYv_VLthMc8rb3-13" value="End" style="strokeWidth=2;html=1;shape=mxgraph.flowchart.start_1;whiteSpace=wrap;" vertex="1" parent="1">
          <mxGeometry x="460" y="530" width="100" height="60" as="geometry" />
        </mxCell>
        <mxCell id="MInNZ0JYv_VLthMc8rb3-14" style="edgeStyle=orthogonalEdgeStyle;rounded=0;orthogonalLoop=1;jettySize=auto;html=1;entryX=0;entryY=0.5;entryDx=0;entryDy=0;entryPerimeter=0;" edge="1" parent="1" source="MInNZ0JYv_VLthMc8rb3-10" target="MInNZ0JYv_VLthMc8rb3-13">
          <mxGeometry relative="1" as="geometry">
            <Array as="points">
              <mxPoint x="250" y="560" />
            </Array>
          </mxGeometry>
        </mxCell>
        <mxCell id="MInNZ0JYv_VLthMc8rb3-15" style="edgeStyle=orthogonalEdgeStyle;rounded=0;orthogonalLoop=1;jettySize=auto;html=1;entryX=0.697;entryY=0.033;entryDx=0;entryDy=0;entryPerimeter=0;" edge="1" parent="1" source="MInNZ0JYv_VLthMc8rb3-4" target="MInNZ0JYv_VLthMc8rb3-13">
          <mxGeometry relative="1" as="geometry">
            <Array as="points">
              <mxPoint x="530" y="290" />
            </Array>
          </mxGeometry>
        </mxCell>
      </root>
    </mxGraphModel>
  </diagram>
  <diagram id="qhppPn73u1D83asUDDK5" name="Page-5">
    <mxGraphModel dx="1048" dy="601" grid="1" gridSize="10" guides="1" tooltips="1" connect="1" arrows="1" fold="1" page="1" pageScale="1" pageWidth="850" pageHeight="1100" math="0" shadow="0">
      <root>
        <mxCell id="0" />
        <mxCell id="1" parent="0" />
        <mxCell id="RMxkuMSE8gwH40PPj0O9-3" value="" style="edgeStyle=orthogonalEdgeStyle;rounded=0;orthogonalLoop=1;jettySize=auto;html=1;" edge="1" parent="1" source="RMxkuMSE8gwH40PPj0O9-1" target="RMxkuMSE8gwH40PPj0O9-2">
          <mxGeometry relative="1" as="geometry" />
        </mxCell>
        <mxCell id="RMxkuMSE8gwH40PPj0O9-1" value="Start" style="strokeWidth=2;html=1;shape=mxgraph.flowchart.start_1;whiteSpace=wrap;" vertex="1" parent="1">
          <mxGeometry x="340" y="20" width="100" height="60" as="geometry" />
        </mxCell>
        <mxCell id="RMxkuMSE8gwH40PPj0O9-7" value="" style="edgeStyle=orthogonalEdgeStyle;rounded=0;orthogonalLoop=1;jettySize=auto;html=1;" edge="1" parent="1" source="RMxkuMSE8gwH40PPj0O9-2" target="RMxkuMSE8gwH40PPj0O9-6">
          <mxGeometry relative="1" as="geometry" />
        </mxCell>
        <mxCell id="RMxkuMSE8gwH40PPj0O9-2" value="counter = 1" style="whiteSpace=wrap;html=1;strokeWidth=2;" vertex="1" parent="1">
          <mxGeometry x="330" y="110" width="120" height="60" as="geometry" />
        </mxCell>
        <mxCell id="RMxkuMSE8gwH40PPj0O9-11" value="" style="edgeStyle=orthogonalEdgeStyle;rounded=0;orthogonalLoop=1;jettySize=auto;html=1;" edge="1" parent="1" source="RMxkuMSE8gwH40PPj0O9-6" target="RMxkuMSE8gwH40PPj0O9-10">
          <mxGeometry relative="1" as="geometry" />
        </mxCell>
        <mxCell id="RMxkuMSE8gwH40PPj0O9-6" value="counter &amp;lt;= 5 ?" style="rhombus;whiteSpace=wrap;html=1;strokeWidth=2;" vertex="1" parent="1">
          <mxGeometry x="345" y="220" width="90" height="80" as="geometry" />
        </mxCell>
        <mxCell id="RMxkuMSE8gwH40PPj0O9-8" value="Yes" style="text;html=1;align=center;verticalAlign=middle;resizable=0;points=[];autosize=1;strokeColor=none;fillColor=none;" vertex="1" parent="1">
          <mxGeometry x="330" y="210" width="40" height="30" as="geometry" />
        </mxCell>
        <mxCell id="RMxkuMSE8gwH40PPj0O9-9" value="No" style="text;html=1;align=center;verticalAlign=middle;resizable=0;points=[];autosize=1;strokeColor=none;fillColor=none;" vertex="1" parent="1">
          <mxGeometry x="405" y="210" width="40" height="30" as="geometry" />
        </mxCell>
        <mxCell id="RMxkuMSE8gwH40PPj0O9-16" value="" style="edgeStyle=orthogonalEdgeStyle;rounded=0;orthogonalLoop=1;jettySize=auto;html=1;" edge="1" parent="1" source="RMxkuMSE8gwH40PPj0O9-10" target="RMxkuMSE8gwH40PPj0O9-15">
          <mxGeometry relative="1" as="geometry" />
        </mxCell>
        <mxCell id="RMxkuMSE8gwH40PPj0O9-10" value="multiple = 3 * counter" style="whiteSpace=wrap;html=1;strokeWidth=2;" vertex="1" parent="1">
          <mxGeometry x="140" y="230" width="120" height="60" as="geometry" />
        </mxCell>
        <mxCell id="RMxkuMSE8gwH40PPj0O9-18" value="" style="edgeStyle=orthogonalEdgeStyle;rounded=0;orthogonalLoop=1;jettySize=auto;html=1;" edge="1" parent="1" source="RMxkuMSE8gwH40PPj0O9-15" target="RMxkuMSE8gwH40PPj0O9-17">
          <mxGeometry relative="1" as="geometry" />
        </mxCell>
        <mxCell id="RMxkuMSE8gwH40PPj0O9-15" value="Output Multiple" style="shape=parallelogram;perimeter=parallelogramPerimeter;whiteSpace=wrap;html=1;fixedSize=1;strokeWidth=2;" vertex="1" parent="1">
          <mxGeometry x="140" y="340" width="120" height="60" as="geometry" />
        </mxCell>
        <mxCell id="RMxkuMSE8gwH40PPj0O9-19" style="edgeStyle=orthogonalEdgeStyle;rounded=0;orthogonalLoop=1;jettySize=auto;html=1;entryX=0.5;entryY=1;entryDx=0;entryDy=0;" edge="1" parent="1" source="RMxkuMSE8gwH40PPj0O9-17" target="RMxkuMSE8gwH40PPj0O9-6">
          <mxGeometry relative="1" as="geometry" />
        </mxCell>
        <mxCell id="RMxkuMSE8gwH40PPj0O9-17" value="counter = counter + 1" style="whiteSpace=wrap;html=1;strokeWidth=2;" vertex="1" parent="1">
          <mxGeometry x="140" y="440" width="120" height="60" as="geometry" />
        </mxCell>
        <mxCell id="RMxkuMSE8gwH40PPj0O9-20" value="End" style="strokeWidth=2;html=1;shape=mxgraph.flowchart.start_1;whiteSpace=wrap;" vertex="1" parent="1">
          <mxGeometry x="390" y="530" width="100" height="60" as="geometry" />
        </mxCell>
        <mxCell id="RMxkuMSE8gwH40PPj0O9-21" style="edgeStyle=orthogonalEdgeStyle;rounded=0;orthogonalLoop=1;jettySize=auto;html=1;entryX=0;entryY=0.5;entryDx=0;entryDy=0;entryPerimeter=0;" edge="1" parent="1" source="RMxkuMSE8gwH40PPj0O9-17" target="RMxkuMSE8gwH40PPj0O9-20">
          <mxGeometry relative="1" as="geometry">
            <Array as="points">
              <mxPoint x="215" y="560" />
            </Array>
          </mxGeometry>
        </mxCell>
        <mxCell id="RMxkuMSE8gwH40PPj0O9-22" style="edgeStyle=orthogonalEdgeStyle;rounded=0;orthogonalLoop=1;jettySize=auto;html=1;entryX=0.667;entryY=0.078;entryDx=0;entryDy=0;entryPerimeter=0;" edge="1" parent="1" source="RMxkuMSE8gwH40PPj0O9-6" target="RMxkuMSE8gwH40PPj0O9-20">
          <mxGeometry relative="1" as="geometry">
            <Array as="points">
              <mxPoint x="467" y="260" />
            </Array>
          </mxGeometry>
        </mxCell>
      </root>
    </mxGraphModel>
  </diagram>
</mxfile>
